<svg height="100%" width="100%" id="svg" viewBox="0 0 1440 700" xmlns="http://www.w3.org/2000/svg" class="transition duration-300 ease-in-out delay-150"><path d="M 0,700 C 0,700 0,350 0,350 C 66.2890615365643,370.97980022197555 132.5781230731286,391.95960044395116 188,361 C 243.4218769268714,330.04039955604884 287.9765692440498,247.1413984461709 332,220 C 376.0234307559502,192.8586015538291 419.515599950672,221.47480577136514 473,263 C 526.484400049328,304.52519422863486 589.9610309532618,358.9593784683684 645,355 C 700.0389690467382,351.0406215316316 746.6402762362807,288.687680355161 804,317 C 861.3597237637193,345.312319644839 929.4778641016155,464.28990011098773 977,476 C 1024.5221358983845,487.71009988901227 1051.4482673572575,392.15271920088793 1094,328 C 1136.5517326427425,263.84728079911207 1194.729066469355,231.09922308546058 1255,240 C 1315.270933530645,248.90077691453942 1377.6354667653225,299.4503884572697 1440,350 C 1440,350 1440,700 1440,700 Z" stroke="none" stroke-width="0" fill="#212121ff" class="transition-all duration-300 ease-in-out delay-150"></path></svg>